<mxfile host="65bd71144e">
    <diagram id="9Nr1WOsyAE7dWFaMV573" name="Logged-Out Homepage">
        <mxGraphModel dx="460" dy="667" grid="1" gridSize="10" guides="1" tooltips="1" connect="1" arrows="1" fold="1" page="1" pageScale="1" pageWidth="850" pageHeight="1100" math="0" shadow="0">
            <root>
                <mxCell id="0"/>
                <mxCell id="1" parent="0"/>
                <mxCell id="21" style="edgeStyle=none;html=1;" parent="1" source="12" edge="1">
                    <mxGeometry relative="1" as="geometry">
                        <mxPoint x="800" y="30" as="targetPoint"/>
                    </mxGeometry>
                </mxCell>
                <mxCell id="12" value="Navbar" style="html=1;shadow=0;dashed=0;fillColor=#F8F9FA;strokeColor=none;fontSize=16;fontColor=#181819;align=left;spacing=15;" parent="1" vertex="1">
                    <mxGeometry width="840" height="60" as="geometry"/>
                </mxCell>
                <mxCell id="20" style="edgeStyle=none;html=1;" parent="12" source="18" target="12" edge="1">
                    <mxGeometry relative="1" as="geometry"/>
                </mxCell>
                <mxCell id="13" value="Login" style="fillColor=none;strokeColor=none;fontSize=14;fontColor=#181819;align=center;" parent="12" vertex="1">
                    <mxGeometry width="70" height="40" relative="1" as="geometry">
                        <mxPoint x="70" y="10" as="offset"/>
                    </mxGeometry>
                </mxCell>
                <mxCell id="14" value="Logout" style="fillColor=none;strokeColor=none;fontSize=14;fontColor=#7C7C7D;align=center;" parent="12" vertex="1">
                    <mxGeometry width="50" height="40" relative="1" as="geometry">
                        <mxPoint x="140" y="10" as="offset"/>
                    </mxGeometry>
                </mxCell>
                <mxCell id="18" value="Search" style="html=1;shadow=0;dashed=0;shape=mxgraph.bootstrap.rrect;rSize=5;fontSize=14;fontColor=#33A64C;strokeColor=#33A64C;fillColor=none;" parent="12" vertex="1">
                    <mxGeometry x="1" width="70" height="40" relative="1" as="geometry">
                        <mxPoint x="-80" y="10" as="offset"/>
                    </mxGeometry>
                </mxCell>
                <mxCell id="19" value="" style="html=1;shadow=0;dashed=0;shape=mxgraph.bootstrap.rrect;rSize=5;fontSize=14;fontColor=#6C767D;strokeColor=#CED4DA;fillColor=#ffffff;align=left;spacing=10;" parent="12" vertex="1">
                    <mxGeometry x="1" width="180" height="40" relative="1" as="geometry">
                        <mxPoint x="-270" y="10" as="offset"/>
                    </mxGeometry>
                </mxCell>
                <mxCell id="JJ9koOHi0fQEEW5wgMde-21" value="Login bozo" style="rounded=0;whiteSpace=wrap;html=1;" parent="1" vertex="1">
                    <mxGeometry x="105" y="140" width="630" height="580" as="geometry"/>
                </mxCell>
            </root>
        </mxGraphModel>
    </diagram>
    <diagram name="Budget Homepage" id="a4s7Nc49Zq2Wk8KQI3DP">
        <mxGraphModel dx="2063" dy="953" grid="1" gridSize="10" guides="1" tooltips="1" connect="1" arrows="1" fold="1" page="1" pageScale="1" pageWidth="850" pageHeight="1100" math="0" shadow="0">
            <root>
                <mxCell id="89ZOazY9bAGmwbhoig4d-0"/>
                <mxCell id="89ZOazY9bAGmwbhoig4d-1" parent="89ZOazY9bAGmwbhoig4d-0"/>
                <mxCell id="89ZOazY9bAGmwbhoig4d-2" style="edgeStyle=none;html=1;" parent="89ZOazY9bAGmwbhoig4d-1" source="89ZOazY9bAGmwbhoig4d-3" edge="1">
                    <mxGeometry relative="1" as="geometry">
                        <mxPoint x="800" y="30" as="targetPoint"/>
                    </mxGeometry>
                </mxCell>
                <mxCell id="89ZOazY9bAGmwbhoig4d-3" value="Navbar" style="html=1;shadow=0;dashed=0;fillColor=#F8F9FA;strokeColor=none;fontSize=16;fontColor=#181819;align=left;spacing=15;" parent="89ZOazY9bAGmwbhoig4d-1" vertex="1">
                    <mxGeometry width="840" height="60" as="geometry"/>
                </mxCell>
                <mxCell id="89ZOazY9bAGmwbhoig4d-4" style="edgeStyle=none;html=1;" parent="89ZOazY9bAGmwbhoig4d-3" source="89ZOazY9bAGmwbhoig4d-7" target="89ZOazY9bAGmwbhoig4d-3" edge="1">
                    <mxGeometry relative="1" as="geometry"/>
                </mxCell>
                <mxCell id="89ZOazY9bAGmwbhoig4d-5" value="Login" style="fillColor=none;strokeColor=none;fontSize=14;fontColor=#181819;align=center;" parent="89ZOazY9bAGmwbhoig4d-3" vertex="1">
                    <mxGeometry width="70" height="40" relative="1" as="geometry">
                        <mxPoint x="70" y="10" as="offset"/>
                    </mxGeometry>
                </mxCell>
                <mxCell id="89ZOazY9bAGmwbhoig4d-6" value="Logout" style="fillColor=none;strokeColor=none;fontSize=14;fontColor=#7C7C7D;align=center;" parent="89ZOazY9bAGmwbhoig4d-3" vertex="1">
                    <mxGeometry width="50" height="40" relative="1" as="geometry">
                        <mxPoint x="140" y="10" as="offset"/>
                    </mxGeometry>
                </mxCell>
                <mxCell id="89ZOazY9bAGmwbhoig4d-7" value="Search" style="html=1;shadow=0;dashed=0;shape=mxgraph.bootstrap.rrect;rSize=5;fontSize=14;fontColor=#33A64C;strokeColor=#33A64C;fillColor=none;" parent="89ZOazY9bAGmwbhoig4d-3" vertex="1">
                    <mxGeometry x="1" width="70" height="40" relative="1" as="geometry">
                        <mxPoint x="-80" y="10" as="offset"/>
                    </mxGeometry>
                </mxCell>
                <mxCell id="89ZOazY9bAGmwbhoig4d-8" value="Search" style="html=1;shadow=0;dashed=0;shape=mxgraph.bootstrap.rrect;rSize=5;fontSize=14;fontColor=#6C767D;strokeColor=#CED4DA;fillColor=#ffffff;align=left;spacing=10;" parent="89ZOazY9bAGmwbhoig4d-3" vertex="1">
                    <mxGeometry x="1" width="180" height="40" relative="1" as="geometry">
                        <mxPoint x="-270" y="10" as="offset"/>
                    </mxGeometry>
                </mxCell>
                <mxCell id="jkTqQm4V_eI5EE-yXoNt-0" style="edgeStyle=none;html=1;" parent="89ZOazY9bAGmwbhoig4d-1" source="-AhP5hTAjmHK2pPac-Qt-0" edge="1">
                    <mxGeometry relative="1" as="geometry">
                        <mxPoint x="420" y="100" as="targetPoint"/>
                    </mxGeometry>
                </mxCell>
                <mxCell id="-AhP5hTAjmHK2pPac-Qt-0" value="Budget !!!" style="shape=table;startSize=30;container=1;collapsible=0;childLayout=tableLayout;fontStyle=1;align=center;pointerEvents=1;" parent="89ZOazY9bAGmwbhoig4d-1" vertex="1">
                    <mxGeometry x="57.5" y="120" width="722.5" height="640" as="geometry"/>
                </mxCell>
                <mxCell id="-AhP5hTAjmHK2pPac-Qt-1" value="" style="shape=partialRectangle;html=1;whiteSpace=wrap;collapsible=0;dropTarget=0;pointerEvents=0;fillColor=none;top=0;left=0;bottom=0;right=0;points=[[0,0.5],[1,0.5]];portConstraint=eastwest;" parent="-AhP5hTAjmHK2pPac-Qt-0" vertex="1">
                    <mxGeometry y="30" width="722.5" height="203" as="geometry"/>
                </mxCell>
                <mxCell id="-AhP5hTAjmHK2pPac-Qt-2" value="Starting Budget" style="shape=partialRectangle;html=1;whiteSpace=wrap;connectable=0;fillColor=none;top=0;left=0;bottom=0;right=0;overflow=hidden;pointerEvents=1;" parent="-AhP5hTAjmHK2pPac-Qt-1" vertex="1">
                    <mxGeometry width="238" height="203" as="geometry">
                        <mxRectangle width="238" height="203" as="alternateBounds"/>
                    </mxGeometry>
                </mxCell>
                <mxCell id="-AhP5hTAjmHK2pPac-Qt-3" value="" style="shape=partialRectangle;html=1;whiteSpace=wrap;connectable=0;fillColor=none;top=0;left=0;bottom=0;right=0;overflow=hidden;pointerEvents=1;" parent="-AhP5hTAjmHK2pPac-Qt-1" vertex="1">
                    <mxGeometry x="238" width="241" height="203" as="geometry">
                        <mxRectangle width="241" height="203" as="alternateBounds"/>
                    </mxGeometry>
                </mxCell>
                <mxCell id="-AhP5hTAjmHK2pPac-Qt-4" value="200" style="shape=partialRectangle;html=1;whiteSpace=wrap;connectable=0;fillColor=none;top=0;left=0;bottom=0;right=0;overflow=hidden;pointerEvents=1;" parent="-AhP5hTAjmHK2pPac-Qt-1" vertex="1">
                    <mxGeometry x="479" width="244" height="203" as="geometry">
                        <mxRectangle width="244" height="203" as="alternateBounds"/>
                    </mxGeometry>
                </mxCell>
                <mxCell id="-AhP5hTAjmHK2pPac-Qt-5" value="" style="shape=partialRectangle;html=1;whiteSpace=wrap;collapsible=0;dropTarget=0;pointerEvents=0;fillColor=none;top=0;left=0;bottom=0;right=0;points=[[0,0.5],[1,0.5]];portConstraint=eastwest;" parent="-AhP5hTAjmHK2pPac-Qt-0" vertex="1">
                    <mxGeometry y="233" width="722.5" height="204" as="geometry"/>
                </mxCell>
                <mxCell id="-AhP5hTAjmHK2pPac-Qt-6" value="Gas" style="shape=partialRectangle;html=1;whiteSpace=wrap;connectable=0;fillColor=none;top=0;left=0;bottom=0;right=0;overflow=hidden;pointerEvents=1;" parent="-AhP5hTAjmHK2pPac-Qt-5" vertex="1">
                    <mxGeometry width="238" height="204" as="geometry">
                        <mxRectangle width="238" height="204" as="alternateBounds"/>
                    </mxGeometry>
                </mxCell>
                <mxCell id="-AhP5hTAjmHK2pPac-Qt-7" value="-50" style="shape=partialRectangle;html=1;whiteSpace=wrap;connectable=0;fillColor=none;top=0;left=0;bottom=0;right=0;overflow=hidden;pointerEvents=1;" parent="-AhP5hTAjmHK2pPac-Qt-5" vertex="1">
                    <mxGeometry x="238" width="241" height="204" as="geometry">
                        <mxRectangle width="241" height="204" as="alternateBounds"/>
                    </mxGeometry>
                </mxCell>
                <mxCell id="-AhP5hTAjmHK2pPac-Qt-8" value="150" style="shape=partialRectangle;html=1;whiteSpace=wrap;connectable=0;fillColor=none;top=0;left=0;bottom=0;right=0;overflow=hidden;pointerEvents=1;" parent="-AhP5hTAjmHK2pPac-Qt-5" vertex="1">
                    <mxGeometry x="479" width="244" height="204" as="geometry">
                        <mxRectangle width="244" height="204" as="alternateBounds"/>
                    </mxGeometry>
                </mxCell>
                <mxCell id="-AhP5hTAjmHK2pPac-Qt-9" value="" style="shape=partialRectangle;html=1;whiteSpace=wrap;collapsible=0;dropTarget=0;pointerEvents=0;fillColor=none;top=0;left=0;bottom=0;right=0;points=[[0,0.5],[1,0.5]];portConstraint=eastwest;" parent="-AhP5hTAjmHK2pPac-Qt-0" vertex="1">
                    <mxGeometry y="437" width="722.5" height="203" as="geometry"/>
                </mxCell>
                <mxCell id="-AhP5hTAjmHK2pPac-Qt-10" value="Pet Food" style="shape=partialRectangle;html=1;whiteSpace=wrap;connectable=0;fillColor=none;top=0;left=0;bottom=0;right=0;overflow=hidden;pointerEvents=1;" parent="-AhP5hTAjmHK2pPac-Qt-9" vertex="1">
                    <mxGeometry width="238" height="203" as="geometry">
                        <mxRectangle width="238" height="203" as="alternateBounds"/>
                    </mxGeometry>
                </mxCell>
                <mxCell id="-AhP5hTAjmHK2pPac-Qt-11" value="-20" style="shape=partialRectangle;html=1;whiteSpace=wrap;connectable=0;fillColor=none;top=0;left=0;bottom=0;right=0;overflow=hidden;pointerEvents=1;" parent="-AhP5hTAjmHK2pPac-Qt-9" vertex="1">
                    <mxGeometry x="238" width="241" height="203" as="geometry">
                        <mxRectangle width="241" height="203" as="alternateBounds"/>
                    </mxGeometry>
                </mxCell>
                <mxCell id="-AhP5hTAjmHK2pPac-Qt-12" value="130" style="shape=partialRectangle;html=1;whiteSpace=wrap;connectable=0;fillColor=none;top=0;left=0;bottom=0;right=0;overflow=hidden;pointerEvents=1;" parent="-AhP5hTAjmHK2pPac-Qt-9" vertex="1">
                    <mxGeometry x="479" width="244" height="203" as="geometry">
                        <mxRectangle width="244" height="203" as="alternateBounds"/>
                    </mxGeometry>
                </mxCell>
                <mxCell id="BfDdoHYRB-jo2MUAD5-v-0" value="Save" style="html=1;shadow=0;dashed=0;shape=mxgraph.bootstrap.rrect;rSize=5;strokeColor=none;strokeWidth=1;fillColor=#33A64C;fontColor=#FFFFFF;whiteSpace=wrap;align=center;verticalAlign=middle;spacingLeft=0;fontStyle=0;fontSize=16;spacing=5;" parent="89ZOazY9bAGmwbhoig4d-1" vertex="1">
                    <mxGeometry x="720" y="1020" width="90" height="40" as="geometry"/>
                </mxCell>
                <mxCell id="wwTxatY2HgLQ478jwHvB-0" value="True Expenses" style="whiteSpace=wrap;html=1;" parent="89ZOazY9bAGmwbhoig4d-1" vertex="1">
                    <mxGeometry x="57.5" y="330" width="722.5" height="60" as="geometry"/>
                </mxCell>
                <mxCell id="wwTxatY2HgLQ478jwHvB-1" value="Add Subcategory" style="rounded=1;whiteSpace=wrap;html=1;arcSize=50;strokeColor=none;strokeWidth=1;fillColor=#33A64C;fontColor=#FFFFFF;whiteSpace=wrap;align=left;verticalAlign=middle;spacingLeft=0;fontStyle=1;fontSize=14;spacing=10;" parent="89ZOazY9bAGmwbhoig4d-1" vertex="1">
                    <mxGeometry x="680" y="350" width="75" height="20" as="geometry"/>
                </mxCell>
                <mxCell id="jSRHcXFOjZzOJPdZ5TdO-0" value="-70" style="whiteSpace=wrap;html=1;" parent="89ZOazY9bAGmwbhoig4d-1" vertex="1">
                    <mxGeometry x="90" y="340" width="90" height="40" as="geometry"/>
                </mxCell>
                <mxCell id="93LHGxQFSJjk-xwuRI_b-0" value="X" style="html=1;shadow=0;dashed=0;shape=mxgraph.bootstrap.rrect;rSize=5;strokeColor=#DB2843;strokeWidth=1;fillColor=none;fontColor=#DB2843;whiteSpace=wrap;align=center;verticalAlign=middle;spacingLeft=0;fontStyle=0;fontSize=16;spacing=5;" parent="89ZOazY9bAGmwbhoig4d-1" vertex="1">
                    <mxGeometry x="70" y="400" width="30" height="30" as="geometry"/>
                </mxCell>
                <mxCell id="93LHGxQFSJjk-xwuRI_b-1" value="X" style="html=1;shadow=0;dashed=0;shape=mxgraph.bootstrap.rrect;rSize=5;strokeColor=#DB2843;strokeWidth=1;fillColor=none;fontColor=#DB2843;whiteSpace=wrap;align=center;verticalAlign=middle;spacingLeft=0;fontStyle=0;fontSize=16;spacing=5;" parent="89ZOazY9bAGmwbhoig4d-1" vertex="1">
                    <mxGeometry x="70" y="570" width="30" height="30" as="geometry"/>
                </mxCell>
                <mxCell id="gB_-pVzcQoM-IacZL6ux-0" value="True Expenses" style="whiteSpace=wrap;html=1;" vertex="1" parent="89ZOazY9bAGmwbhoig4d-1">
                    <mxGeometry x="57.5" y="760" width="722.5" height="60" as="geometry"/>
                </mxCell>
                <mxCell id="gB_-pVzcQoM-IacZL6ux-1" value="Add Subcategory" style="rounded=1;whiteSpace=wrap;html=1;arcSize=50;strokeColor=none;strokeWidth=1;fillColor=#33A64C;fontColor=#FFFFFF;whiteSpace=wrap;align=left;verticalAlign=middle;spacingLeft=0;fontStyle=1;fontSize=14;spacing=10;" vertex="1" parent="89ZOazY9bAGmwbhoig4d-1">
                    <mxGeometry x="690" y="780" width="75" height="20" as="geometry"/>
                </mxCell>
                <mxCell id="gB_-pVzcQoM-IacZL6ux-2" value="X" style="html=1;shadow=0;dashed=0;shape=mxgraph.bootstrap.rrect;rSize=5;strokeColor=#DB2843;strokeWidth=1;fillColor=none;fontColor=#DB2843;whiteSpace=wrap;align=center;verticalAlign=middle;spacingLeft=0;fontStyle=0;fontSize=16;spacing=5;" vertex="1" parent="89ZOazY9bAGmwbhoig4d-1">
                    <mxGeometry x="60" y="330" width="30" height="30" as="geometry"/>
                </mxCell>
                <mxCell id="gB_-pVzcQoM-IacZL6ux-3" value="X" style="html=1;shadow=0;dashed=0;shape=mxgraph.bootstrap.rrect;rSize=5;strokeColor=#DB2843;strokeWidth=1;fillColor=none;fontColor=#DB2843;whiteSpace=wrap;align=center;verticalAlign=middle;spacingLeft=0;fontStyle=0;fontSize=16;spacing=5;" vertex="1" parent="89ZOazY9bAGmwbhoig4d-1">
                    <mxGeometry x="60" y="760" width="30" height="30" as="geometry"/>
                </mxCell>
                <mxCell id="gB_-pVzcQoM-IacZL6ux-4" value="Add Category" style="rounded=1;whiteSpace=wrap;html=1;arcSize=50;strokeColor=none;strokeWidth=1;fillColor=#33A64C;fontColor=#FFFFFF;whiteSpace=wrap;align=left;verticalAlign=middle;spacingLeft=0;fontStyle=1;fontSize=14;spacing=10;" vertex="1" parent="89ZOazY9bAGmwbhoig4d-1">
                    <mxGeometry x="700" y="120" width="75" height="20" as="geometry"/>
                </mxCell>
            </root>
        </mxGraphModel>
    </diagram>
    <diagram name="Add-Category Page" id="iQaLVl62NVGdyXPn71Wx">
        <mxGraphModel dx="500" dy="589" grid="1" gridSize="10" guides="1" tooltips="1" connect="1" arrows="1" fold="1" page="1" pageScale="1" pageWidth="850" pageHeight="1100" math="0" shadow="0">
            <root>
                <mxCell id="_Vbtd3cwvhaxqUoDZ7V3-0"/>
                <mxCell id="_Vbtd3cwvhaxqUoDZ7V3-1" parent="_Vbtd3cwvhaxqUoDZ7V3-0"/>
                <mxCell id="_Vbtd3cwvhaxqUoDZ7V3-2" style="edgeStyle=none;html=1;" parent="_Vbtd3cwvhaxqUoDZ7V3-1" source="_Vbtd3cwvhaxqUoDZ7V3-3" edge="1">
                    <mxGeometry relative="1" as="geometry">
                        <mxPoint x="800" y="30" as="targetPoint"/>
                    </mxGeometry>
                </mxCell>
                <mxCell id="_Vbtd3cwvhaxqUoDZ7V3-3" value="Navbar" style="html=1;shadow=0;dashed=0;fillColor=#F8F9FA;strokeColor=none;fontSize=16;fontColor=#181819;align=left;spacing=15;" parent="_Vbtd3cwvhaxqUoDZ7V3-1" vertex="1">
                    <mxGeometry width="840" height="60" as="geometry"/>
                </mxCell>
                <mxCell id="_Vbtd3cwvhaxqUoDZ7V3-4" style="edgeStyle=none;html=1;" parent="_Vbtd3cwvhaxqUoDZ7V3-3" source="_Vbtd3cwvhaxqUoDZ7V3-7" target="_Vbtd3cwvhaxqUoDZ7V3-3" edge="1">
                    <mxGeometry relative="1" as="geometry"/>
                </mxCell>
                <mxCell id="_Vbtd3cwvhaxqUoDZ7V3-5" value="Login" style="fillColor=none;strokeColor=none;fontSize=14;fontColor=#181819;align=center;" parent="_Vbtd3cwvhaxqUoDZ7V3-3" vertex="1">
                    <mxGeometry width="70" height="40" relative="1" as="geometry">
                        <mxPoint x="70" y="10" as="offset"/>
                    </mxGeometry>
                </mxCell>
                <mxCell id="_Vbtd3cwvhaxqUoDZ7V3-6" value="Logout" style="fillColor=none;strokeColor=none;fontSize=14;fontColor=#7C7C7D;align=center;" parent="_Vbtd3cwvhaxqUoDZ7V3-3" vertex="1">
                    <mxGeometry width="50" height="40" relative="1" as="geometry">
                        <mxPoint x="140" y="10" as="offset"/>
                    </mxGeometry>
                </mxCell>
                <mxCell id="_Vbtd3cwvhaxqUoDZ7V3-7" value="Search" style="html=1;shadow=0;dashed=0;shape=mxgraph.bootstrap.rrect;rSize=5;fontSize=14;fontColor=#33A64C;strokeColor=#33A64C;fillColor=none;" parent="_Vbtd3cwvhaxqUoDZ7V3-3" vertex="1">
                    <mxGeometry x="1" width="70" height="40" relative="1" as="geometry">
                        <mxPoint x="-80" y="10" as="offset"/>
                    </mxGeometry>
                </mxCell>
                <mxCell id="_Vbtd3cwvhaxqUoDZ7V3-8" value="Search" style="html=1;shadow=0;dashed=0;shape=mxgraph.bootstrap.rrect;rSize=5;fontSize=14;fontColor=#6C767D;strokeColor=#CED4DA;fillColor=#ffffff;align=left;spacing=10;" parent="_Vbtd3cwvhaxqUoDZ7V3-3" vertex="1">
                    <mxGeometry x="1" width="180" height="40" relative="1" as="geometry">
                        <mxPoint x="-270" y="10" as="offset"/>
                    </mxGeometry>
                </mxCell>
                <mxCell id="_Vbtd3cwvhaxqUoDZ7V3-9" value="" style="rounded=0;whiteSpace=wrap;html=1;" parent="_Vbtd3cwvhaxqUoDZ7V3-1" vertex="1">
                    <mxGeometry x="140" y="130" width="550" height="240" as="geometry"/>
                </mxCell>
                <mxCell id="_Vbtd3cwvhaxqUoDZ7V3-10" value="Add a Category" style="rounded=1;whiteSpace=wrap;html=1;" parent="_Vbtd3cwvhaxqUoDZ7V3-1" vertex="1">
                    <mxGeometry x="230" y="170" width="370" height="30" as="geometry"/>
                </mxCell>
                <mxCell id="QdwGsg-9BUTDW0nEh4VQ-0" value="Category Name" style="whiteSpace=wrap;html=1;" parent="_Vbtd3cwvhaxqUoDZ7V3-1" vertex="1">
                    <mxGeometry x="230" y="230" width="370" height="60" as="geometry"/>
                </mxCell>
                <mxCell id="61gkaloDoaGp4TEo1mmR-0" value="Save" style="html=1;shadow=0;dashed=0;shape=mxgraph.bootstrap.rrect;rSize=5;strokeColor=none;strokeWidth=1;fillColor=#33A64C;fontColor=#FFFFFF;whiteSpace=wrap;align=center;verticalAlign=middle;spacingLeft=0;fontStyle=0;fontSize=16;spacing=5;" parent="_Vbtd3cwvhaxqUoDZ7V3-1" vertex="1">
                    <mxGeometry x="375" y="310" width="90" height="40" as="geometry"/>
                </mxCell>
            </root>
        </mxGraphModel>
    </diagram>
    <diagram id="Yl6MgldDYUDuuCDVd13S" name="Page-4">
        <mxGraphModel dx="1444" dy="667" grid="1" gridSize="10" guides="1" tooltips="1" connect="1" arrows="1" fold="1" page="1" pageScale="1" pageWidth="850" pageHeight="1100" math="0" shadow="0">
            <root>
                <mxCell id="wb3quwZJ64TQ2_rXbRH--0"/>
                <mxCell id="wb3quwZJ64TQ2_rXbRH--1" parent="wb3quwZJ64TQ2_rXbRH--0"/>
                <mxCell id="CnU_m5axjRY5hZPwW4kE-5" style="edgeStyle=none;html=1;entryX=-0.008;entryY=0.133;entryDx=0;entryDy=0;exitX=1;exitY=0.25;exitDx=0;exitDy=0;entryPerimeter=0;" edge="1" parent="wb3quwZJ64TQ2_rXbRH--1" source="wb3quwZJ64TQ2_rXbRH--2" target="wb3quwZJ64TQ2_rXbRH--3">
                    <mxGeometry relative="1" as="geometry"/>
                </mxCell>
                <mxCell id="YETSwQ2b-0kZh9bTNJC5-0" style="edgeStyle=none;html=1;" edge="1" parent="wb3quwZJ64TQ2_rXbRH--1" source="wb3quwZJ64TQ2_rXbRH--2" target="wb3quwZJ64TQ2_rXbRH--3">
                    <mxGeometry relative="1" as="geometry"/>
                </mxCell>
                <mxCell id="YETSwQ2b-0kZh9bTNJC5-1" style="edgeStyle=none;html=1;entryX=0;entryY=0.75;entryDx=0;entryDy=0;" edge="1" parent="wb3quwZJ64TQ2_rXbRH--1" source="wb3quwZJ64TQ2_rXbRH--2" target="wb3quwZJ64TQ2_rXbRH--3">
                    <mxGeometry relative="1" as="geometry"/>
                </mxCell>
                <mxCell id="wb3quwZJ64TQ2_rXbRH--2" value="Category" style="whiteSpace=wrap;html=1;" vertex="1" parent="wb3quwZJ64TQ2_rXbRH--1">
                    <mxGeometry x="250" y="100" width="120" height="60" as="geometry"/>
                </mxCell>
                <mxCell id="wb3quwZJ64TQ2_rXbRH--3" value="Sub-Category" style="whiteSpace=wrap;html=1;" vertex="1" parent="wb3quwZJ64TQ2_rXbRH--1">
                    <mxGeometry x="430" y="100" width="120" height="60" as="geometry"/>
                </mxCell>
                <mxCell id="CnU_m5axjRY5hZPwW4kE-2" style="edgeStyle=none;html=1;entryX=0;entryY=0.25;entryDx=0;entryDy=0;" edge="1" parent="wb3quwZJ64TQ2_rXbRH--1" source="CnU_m5axjRY5hZPwW4kE-0" target="wb3quwZJ64TQ2_rXbRH--2">
                    <mxGeometry relative="1" as="geometry"/>
                </mxCell>
                <mxCell id="CnU_m5axjRY5hZPwW4kE-3" style="edgeStyle=none;html=1;" edge="1" parent="wb3quwZJ64TQ2_rXbRH--1" source="CnU_m5axjRY5hZPwW4kE-0" target="wb3quwZJ64TQ2_rXbRH--2">
                    <mxGeometry relative="1" as="geometry"/>
                </mxCell>
                <mxCell id="CnU_m5axjRY5hZPwW4kE-4" style="edgeStyle=none;html=1;entryX=0;entryY=0.75;entryDx=0;entryDy=0;" edge="1" parent="wb3quwZJ64TQ2_rXbRH--1" source="CnU_m5axjRY5hZPwW4kE-0" target="wb3quwZJ64TQ2_rXbRH--2">
                    <mxGeometry relative="1" as="geometry"/>
                </mxCell>
                <mxCell id="CnU_m5axjRY5hZPwW4kE-0" value="User" style="whiteSpace=wrap;html=1;" vertex="1" parent="wb3quwZJ64TQ2_rXbRH--1">
                    <mxGeometry x="60" y="100" width="120" height="60" as="geometry"/>
                </mxCell>
            </root>
        </mxGraphModel>
    </diagram>
</mxfile>